<svg width="108" height="34" viewBox="0 0 108 34" fill="none" xmlns="http://www.w3.org/2000/svg">
<path d="M4.52143 24.58L11.2932 12.7997C11.5701 12.3486 11.586 11.9541 11.3411 11.6161C11.1224 11.2739 10.7631 11.144 10.2632 11.2265L3.31721 12.3731C2.65945 12.4817 2.10066 12.3712 1.64085 12.0417C1.1767 11.6859 0.890337 11.1791 0.781756 10.5213L0.364807 7.99551C0.256227 7.33774 0.366692 6.77896 0.696203 6.31915C1.02137 5.83303 1.51284 5.53568 2.1706 5.4271L20.0487 2.47589C20.7064 2.36731 21.2674 2.49093 21.7315 2.84675C22.2176 3.17192 22.515 3.66338 22.6236 4.32115L23.047 6.88643C23.1209 7.33371 23.1597 7.73271 23.1636 8.08344C23.1894 8.40351 23.1735 8.71694 23.1161 9.02373C23.0543 9.30421 22.953 9.5912 22.8122 9.88471C22.6978 10.1739 22.5131 10.5287 22.2582 10.9492L15.5259 22.7229C15.249 23.174 15.2199 23.5707 15.4386 23.913C15.6835 24.2509 16.056 24.3786 16.5559 24.2961L23.4624 23.156C24.1202 23.0474 24.6811 23.1711 25.1453 23.5269C25.6314 23.852 25.9288 24.3435 26.0373 25.0013L26.4543 27.5271C26.5629 28.1849 26.4414 28.759 26.0899 29.2494C25.7604 29.7092 25.2668 29.9934 24.609 30.102L6.77044 33.0467C6.08637 33.1596 5.51443 33.0513 5.05462 32.7218C4.59047 32.366 4.3041 31.8592 4.19552 31.2015L3.77206 28.6362C3.69823 28.1889 3.6484 27.8052 3.6226 27.4851C3.61876 27.1344 3.63459 26.821 3.67008 26.5449C3.72755 26.2381 3.82666 25.9379 3.9674 25.6444C4.10814 25.3509 4.29282 24.9961 4.52143 24.58ZM30.9935 3.26019C30.9625 2.59424 31.1375 2.05218 31.5184 1.63401C31.8982 1.18919 32.421 0.951274 33.0869 0.920257L47.6711 0.24097C48.3371 0.209953 48.8798 0.398241 49.2992 0.805836C49.7173 1.18679 49.9419 1.71024 49.973 2.37619L50.0902 4.89346C50.1212 5.5594 49.9463 6.10146 49.5653 6.51964C49.1843 6.93782 48.6609 7.16242 47.995 7.19343L41.2023 7.50981C40.7761 7.52967 40.436 7.67898 40.1821 7.95777C39.9268 8.20992 39.8092 8.54909 39.829 8.9753L39.8793 10.0541C39.9004 10.507 40.0497 10.8471 40.3272 11.0744C40.6048 11.3017 40.9566 11.4055 41.3828 11.3856L45.8979 11.1753C46.5639 11.1443 47.1066 11.3326 47.526 11.7402C47.9442 12.1211 48.1688 12.6446 48.1998 13.3105L48.2854 15.1485C48.3164 15.8145 48.1421 16.3699 47.7623 16.8147C47.3814 17.2329 46.8579 17.4575 46.192 17.4885L41.6769 17.6988C41.2507 17.7186 40.91 17.8546 40.6548 18.1068C40.3996 18.3589 40.2825 18.7114 40.3036 19.1643L40.3538 20.2431C40.3737 20.6693 40.523 21.0094 40.8018 21.2633C41.0793 21.4907 41.4312 21.5944 41.8574 21.5746L48.65 21.2582C49.316 21.2272 49.8581 21.4021 50.2762 21.7831C50.6944 22.1641 50.919 22.6875 50.95 23.3534L51.0673 25.8707C51.0983 26.5367 50.9239 27.092 50.5442 27.5369C50.1633 27.955 49.6398 28.1796 48.9739 28.2106L34.3897 28.8899C33.7237 28.921 33.1817 28.746 32.7635 28.365C32.3441 27.9574 32.1189 27.4207 32.0878 26.7547L30.9935 3.26019ZM67.3935 21.5761L71.9861 21.8367C72.6517 21.8744 73.1721 22.1176 73.5473 22.5662C73.9506 22.9898 74.1334 23.5343 74.0956 24.1999L73.9506 26.7558C73.9129 27.4214 73.6689 27.9551 73.2188 28.3569C72.7968 28.7336 72.253 28.9031 71.5874 28.8654L58.4485 28.12C57.7829 28.0823 57.2484 27.8516 56.8451 27.4281C56.4699 26.9795 56.3012 26.4224 56.339 25.7568L57.671 2.2745C57.7088 1.60891 57.9387 1.08776 58.3607 0.711056C58.8108 0.309238 59.3687 0.127208 60.0343 0.164965L64.1477 0.398308C64.8133 0.436065 65.3337 0.679263 65.7089 1.1279C66.0856 1.54991 66.2551 2.09372 66.2173 2.75931L65.2817 19.2528C65.2333 20.1048 65.3465 20.6988 65.6213 21.0349C65.9242 21.3459 66.5149 21.5263 67.3935 21.5761ZM80.5406 18.8234L83.0316 3.99117C83.1421 3.33372 83.4276 2.84088 83.8884 2.51265C84.3535 2.15813 84.9148 2.03608 85.5723 2.1465L89.6354 2.8289C90.2928 2.93932 90.7835 3.23804 91.1073 3.72507C91.4618 4.19021 91.5838 4.75151 91.4734 5.40897L88.9823 20.2412C88.7703 21.5036 88.8414 22.5295 89.1955 23.3191C89.5496 24.1086 90.3973 24.616 91.7385 24.8413C93.0797 25.0665 94.0466 24.8639 94.6393 24.2333C95.2582 23.6072 95.6736 22.663 95.8857 21.4007L98.3767 6.56838C98.4872 5.91093 98.7727 5.41808 99.2335 5.08986C99.6986 4.73534 100.26 4.61329 100.917 4.72371L104.98 5.40611C105.638 5.51653 106.129 5.81525 106.452 6.30228C106.807 6.76742 106.929 7.32872 106.819 7.98618L104.327 22.8184C104.049 24.4752 103.587 25.9389 102.941 27.2095C102.295 28.48 101.417 29.5223 100.307 30.3363C99.2272 31.1285 97.8807 31.6595 96.2671 31.9292C94.6534 32.199 92.7552 32.1506 90.5725 31.784C88.3634 31.413 86.5404 30.8365 85.1034 30.0543C83.6927 29.2766 82.5935 28.3348 81.8058 27.2291C81.0488 26.1015 80.5725 24.8317 80.377 23.4198C80.2078 22.0124 80.2623 20.4802 80.5406 18.8234Z" fill="#FEFFF5"/>
</svg>
