<svg width="723" height="574" viewBox="0 0 723 574" fill="none" xmlns="http://www.w3.org/2000/svg">
<g filter="url(#filter0_g_1973_1963)">
<path d="M51.0413 447.403C47.561 460.193 55.1078 473.382 67.8976 476.862C80.6874 480.343 93.8769 472.796 97.3572 460.006L74.1992 453.705L51.0413 447.403ZM74.2255 453.608L51.4974 445.899L51.2609 446.596L51.0675 447.306L74.2255 453.608ZM76.061 448.197L98.789 455.906L101.01 449.358L99.4069 442.632L76.061 448.197ZM74.6304 442.195L51.8572 434.62L49.699 441.108L51.2844 447.76L74.6304 442.195ZM76.4638 436.683L99.237 444.258L101.263 438.167L99.978 431.878L76.4638 436.683ZM75.2275 430.633L51.5094 426.965L50.8515 431.22L51.7134 435.437L75.2275 430.633ZM76.0974 425.007L53.266 417.609L52.6732 419.439L52.3793 421.339L76.0974 425.007ZM77.926 419.363L100.758 426.761L101.635 424.052L101.855 421.214L77.926 419.363ZM78.3668 413.666L102.295 415.517L102.316 415.249L102.331 414.98L78.3668 413.666ZM78.6869 407.828L55.5125 401.588L54.8602 404.01L54.7229 406.514L78.6869 407.828ZM80.1901 402.246L57.3694 394.815L57.1771 395.406L57.0157 396.005L80.1901 402.246ZM81.9846 396.735L104.805 404.165L105.508 402.006L105.794 399.753L81.9846 396.735ZM82.7189 390.943L106.528 393.962L106.572 393.618L106.606 393.273L82.7189 390.943ZM83.2775 385.216L61.5143 375.098L59.7883 378.811L59.3908 382.886L83.2775 385.216ZM85.7795 379.834L107.543 389.952L109.744 385.215L109.779 379.993L85.7795 379.834ZM85.8186 373.924L66.333 359.913L61.8697 366.12L61.8191 373.765L85.8186 373.924ZM89.4291 368.903L108.915 382.914L112.648 377.722L113.303 371.361L89.4291 368.903ZM90.0322 363.046L113.906 365.505L113.934 365.23L113.956 364.954L90.0322 363.046ZM90.4944 357.252L69.0016 346.572L66.9389 350.723L66.5703 355.344L90.4944 357.252ZM93.1088 351.991L71.8012 340.946L71.7071 341.128L71.6161 341.311L93.1088 351.991ZM95.8199 346.761L117.128 357.805L118.126 355.88L118.762 353.806L95.8199 346.761ZM97.4978 341.297L120.44 348.342L121.172 345.961L121.398 343.479L97.4978 341.297ZM98.0355 335.409L75.1159 328.289L74.3651 330.706L74.135 333.226L98.0355 335.409ZM99.7473 329.898L78.1184 319.497L77.3522 321.09L76.8277 322.778L99.7473 329.898ZM102.253 324.688L123.882 335.09L125.334 332.069L125.904 328.766L102.253 324.688ZM103.25 318.908L79.7808 313.886L79.6802 314.356L79.5985 314.83L103.25 318.908ZM104.468 313.216L87.0388 296.716L82.4082 301.607L80.9988 308.194L104.468 313.216ZM108.758 308.684L126.186 325.184L128.929 322.287L130.587 318.658L108.758 308.684ZM111.16 303.427L132.989 313.401L135.327 308.284L135.148 302.661L111.16 303.427ZM110.96 297.155L89.0313 287.401L86.7967 292.425L86.9721 297.92L110.96 297.155ZM113.302 291.888L135.231 301.642L135.608 300.795L135.918 299.921L113.302 291.888ZM115.245 286.42L96.0073 272.07L93.8412 274.974L92.6288 278.388L115.245 286.42ZM118.78 281.68L138.018 296.03L140.645 292.508L141.854 288.283L118.78 281.68ZM120.381 276.087L100.803 262.205L98.4341 265.546L97.3072 269.484L120.381 276.087ZM123.78 271.294L143.357 285.176L145.618 281.988L146.75 278.249L123.78 271.294ZM125.468 265.718L106.31 251.262L103.736 254.673L102.497 258.764L125.468 265.718ZM128.996 261.043L148.153 275.499L150.523 272.36L151.766 268.628L128.996 261.043ZM130.84 255.506L109.655 244.229L108.707 246.008L108.07 247.921L130.84 255.506ZM133.548 250.418L113.909 236.624L113.058 237.835L112.362 239.142L133.548 250.418ZM136.878 245.677L156.518 259.472L157.91 257.49L158.878 255.269L136.878 245.677ZM139.194 240.365L161.194 249.957L161.228 249.879L161.261 249.801L139.194 240.365ZM141.478 235.025L121.839 221.23L120.397 223.282L119.411 225.589L141.478 235.025ZM144.801 230.294L129.034 212.2L126.837 214.114L125.162 216.499L144.801 230.294ZM149.356 226.325L165.123 244.42L170.646 239.607L172.54 232.53L149.356 226.325ZM150.914 220.506L133.337 204.163L129.273 208.534L127.73 214.3L150.914 220.506ZM154.891 216.227L172.468 232.57L175.675 229.12L177.341 224.714L154.891 216.227ZM156.983 210.693L136.431 198.299L135.305 200.167L134.534 202.207L156.983 210.693ZM159.973 205.737L141.086 190.929L140.179 192.085L139.421 193.342L159.973 205.737ZM163.536 201.192L148.294 182.653L146.267 184.32L144.649 186.384L163.536 201.192ZM168.13 197.415L183.372 215.954L188.692 211.58L190.883 205.05L168.13 197.415ZM170.067 191.644L153.916 173.892L149.299 178.092L147.314 184.009L170.067 191.644ZM174.394 187.708L190.544 205.461L192.074 204.069L193.343 202.437L174.394 187.708ZM177.933 183.155L196.882 197.884L197.5 197.089L198.048 196.246L177.933 183.155ZM181.107 178.277L164.761 160.705L162.601 162.714L160.992 165.186L181.107 178.277ZM185.355 174.326L169.283 156.502L169.144 156.627L169.008 156.754L185.355 174.326ZM189.659 170.445L174.036 152.227L173.809 152.421L173.588 152.621L189.659 170.445ZM194.059 166.672L209.683 184.89L211.581 183.262L213.103 181.278L194.059 166.672ZM197.576 162.087L216.62 176.693L217.224 175.905L217.761 175.07L197.576 162.087ZM200.763 157.132L184.831 139.182L182.363 141.373L180.578 144.149L200.763 157.132ZM205.091 153.291L190.469 134.259L189.795 134.777L189.16 135.341L205.091 153.291ZM209.684 149.761L224.306 168.793L226.576 167.049L228.372 164.82L209.684 149.761ZM213.346 145.217L205.718 122.461L199.063 124.692L194.659 130.158L213.346 145.217ZM219.264 143.233L226.893 165.988L235.533 163.091L240.073 155.19L219.264 143.233ZM222.316 137.922L209.805 117.441L204.565 120.641L201.506 125.965L222.316 137.922ZM227.272 134.894L239.783 155.375L243.239 153.264L245.811 150.136L227.272 134.894ZM231.034 130.319L222.806 107.774L216.654 110.019L212.495 115.077L231.034 130.319ZM236.695 128.253L244.923 150.798L248.333 149.554L251.222 147.357L236.695 128.253ZM241.264 124.778L255.792 143.882L257.649 142.469L259.2 140.725L241.264 124.778ZM245.216 120.333L239.286 97.0776L232.164 98.8936L227.28 104.386L245.216 120.333ZM251.138 118.824L257.068 142.079L261.716 140.894L265.552 138.013L251.138 118.824ZM255.731 115.373L247.229 92.9296L244.042 94.1368L241.317 96.1835L255.731 115.373ZM261.183 113.308L269.685 135.751L276.394 133.21L280.607 127.403L261.183 113.308ZM264.91 108.171L253.739 86.9295L248.778 89.5388L245.485 94.0759L264.91 108.171ZM270.016 105.486L260.541 83.4354L259.677 83.8066L258.845 84.2443L270.016 105.486ZM275.33 103.203L267.35 80.5684L266.593 80.8353L265.855 81.1522L275.33 103.203ZM280.823 101.266L274.277 78.1761L273.553 78.3814L272.843 78.6317L280.823 101.266ZM286.427 99.6773L292.973 122.767L294.843 122.237L296.604 121.413L286.427 99.6773ZM291.609 97.2511L301.786 118.987L302.643 118.586L303.466 118.118L291.609 97.2511ZM296.661 94.3811L289.441 71.4927L287.016 72.2578L284.805 73.5141L296.661 94.3811ZM302.198 92.6344L309.418 115.523L309.669 115.443L309.919 115.359L302.198 92.6344ZM307.603 90.798L315.324 113.522L316.816 113.015L318.229 112.318L307.603 90.798ZM312.808 88.2282L305.453 65.383L303.769 65.9252L302.182 66.7085L312.808 88.2282ZM318.332 86.4497L325.687 109.295L327.135 108.829L328.513 108.183L318.332 86.4497ZM323.615 83.975L326.905 60.2017L319.867 59.2274L313.433 62.2416L323.615 83.975ZM329.78 84.8285L326.489 108.602L334.626 109.728L341.747 105.632L329.78 84.8285ZM334.984 81.8352L329.722 58.4192L326.171 59.217L323.017 61.0315L334.984 81.8352ZM340.667 80.5581L336.211 56.9753L335.807 57.0518L335.405 57.142L340.667 80.5581ZM346.274 79.4987L350.73 103.081L350.94 103.042L351.149 102.998L346.274 79.4987ZM351.912 78.3291L356.787 101.829L357.207 101.742L357.624 101.639L351.912 78.3291ZM357.577 76.9408L360.725 53.1481L356.25 52.5561L351.865 53.6305L357.577 76.9408ZM363.526 77.7278L360.378 101.52L362.825 101.844L365.286 101.663L363.526 77.7278ZM369.209 77.3098L370.969 101.245L375.106 100.941L378.9 99.2662L369.209 77.3098ZM374.746 74.8658L376.053 50.9014L370.314 50.5883L365.055 52.9094L374.746 74.8658ZM380.624 75.1865L379.317 99.1508L380.342 99.2068L381.369 99.1749L380.624 75.1865ZM386.365 75.0083L390.284 51.3304L387.968 50.947L385.621 51.0198L386.365 75.0083ZM392.117 75.9603L388.197 99.6381L394.231 100.637L400.007 98.6262L392.117 75.9603ZM397.819 73.9754L399.432 50.0297L394.55 49.7007L389.928 51.3095L397.819 73.9754ZM403.66 74.3691L405.935 50.4771L405.605 50.4457L405.274 50.4235L403.66 74.3691ZM409.548 74.9296L407.274 98.8216L409.77 99.0592L412.261 98.7758L409.548 74.9296ZM415.407 74.263L416.728 50.2993L414.706 50.1879L412.694 50.4168L415.407 74.263ZM421.182 74.5812L428.216 51.6352L425.421 50.7784L422.502 50.6176L421.182 74.5812ZM426.797 76.3025L419.763 99.2486L423.777 100.479L427.971 100.274L426.797 76.3025ZM432.466 76.0248L438.504 52.7967L434.955 51.8742L431.292 52.0536L432.466 76.0248ZM438.163 77.5055L432.125 100.734L438.899 102.494L445.557 100.338L438.163 77.5055ZM444.25 75.5342L453.529 53.4004L445.322 49.96L436.856 52.7016L444.25 75.5342ZM449.763 77.8454L440.484 99.9792L443.346 101.179L446.419 101.611L449.763 77.8454ZM455.401 78.6386L463.664 56.1058L461.27 55.2279L458.744 54.8726L455.401 78.6386ZM460.805 80.6205L452.542 103.153L457.714 105.05L463.195 104.501L460.805 80.6205ZM466.886 80.0118L470.73 56.3216L467.625 55.8179L464.496 56.1311L466.886 80.0118ZM472.628 80.9434L478.625 57.7047L477.559 57.4295L476.472 57.2532L472.628 80.9434ZM478.196 82.3801L472.199 105.619L473.475 105.948L474.779 106.136L478.196 82.3801ZM483.872 83.1965L490.903 60.2493L489.127 59.7053L487.289 59.4409L483.872 83.1965ZM489.454 84.9064L496.694 62.0245L496.589 61.9914L496.484 61.9593L489.454 84.9064ZM495.022 86.6682L507.305 66.0496L504.914 64.6256L502.262 63.7863L495.022 86.6682ZM500.088 89.6862L487.805 110.305L488.33 110.618L488.87 110.903L500.088 89.6862ZM505.163 92.3697L493.946 113.587L496.073 114.711L498.381 115.391L505.163 92.3697ZM510.702 94.0013L503.92 117.023L504.576 117.216L505.242 117.372L510.702 94.0013ZM516.452 95.3448L531.049 76.2941L526.946 73.1501L521.912 71.9741L516.452 95.3448ZM521.15 98.9445L506.553 117.995L507.294 118.563L508.077 119.071L521.15 98.9445ZM525.958 102.068L512.885 122.194L518.088 125.574L524.277 126.009L525.958 102.068ZM532.199 102.506L545.986 82.8612L540.53 79.0319L533.88 78.565L532.199 102.506ZM536.999 105.875L523.212 125.52L524.624 126.511L526.164 127.29L536.999 105.875ZM542.163 108.488L559.508 91.9004L556.667 88.9293L552.999 87.0732L542.163 108.488ZM546.249 112.76L528.904 129.348L532.327 132.928L536.888 134.86L546.249 112.76ZM551.637 115.043L569.81 99.3673L566.153 95.1272L560.997 92.9433L551.637 115.043ZM555.541 119.57L537.368 135.245L539.206 137.376L541.487 139.024L555.541 119.57ZM560.182 122.922L546.128 142.377L548.993 144.446L552.333 145.602L560.182 122.922ZM565.877 124.893L586.139 112.03L581.647 104.953L573.725 102.212L565.877 124.893ZM569.141 130.034L548.879 142.897L552.93 149.278L559.907 152.187L569.141 130.034ZM574.749 132.372L590.725 114.462L587.711 111.773L583.983 110.219L574.749 132.372ZM579.055 136.213L563.08 154.123L563.377 154.388L563.683 154.643L579.055 136.213ZM583.48 139.904L604.284 127.936L602.146 124.219L598.853 121.473L583.48 139.904ZM586.475 145.11L565.672 157.077L568.174 161.427L572.21 164.41L586.475 145.11ZM591.198 148.601L612.133 136.864L609.611 132.366L605.464 129.301L591.198 148.601ZM594.074 153.73L573.139 165.466L573.746 166.549L574.462 167.564L594.074 153.73ZM597.388 158.429L577.777 172.263L580.922 176.722L585.686 179.383L597.388 158.429ZM602.856 161.482L626.261 156.172L623.895 145.743L614.558 140.528L602.856 161.482ZM604.252 167.636L580.847 172.946L583.115 182.943L591.906 188.217L604.252 167.636ZM609.635 170.865L630.698 159.361L627.573 153.638L621.981 150.284L609.635 170.865ZM612.427 175.978L633.548 164.58L633.52 164.527L633.491 164.474L612.427 175.978ZM615.182 181.083L637.94 173.461L637.284 171.503L636.303 169.686L615.182 181.083ZM617.05 186.658L594.292 194.281L594.85 195.946L595.645 197.513L617.05 186.658ZM619.641 191.769L598.236 202.623L598.633 203.407L599.087 204.159L619.641 191.769ZM622.618 196.708L602.064 209.098L602.272 209.442L602.491 209.78L622.618 196.708ZM625.778 201.573L605.65 214.645L606.098 215.335L606.593 215.993L625.778 201.573ZM629.331 206.3L653.286 204.827L652.844 197.638L648.516 191.881L629.331 206.3ZM629.707 212.408L605.752 213.882L606.019 218.219L607.789 222.187L629.707 212.408ZM632.055 217.671L655.449 212.316L654.927 210.032L653.972 207.893L632.055 217.671ZM633.344 223.306L609.95 228.662L610.877 232.714L613.114 236.218L633.344 223.306ZM636.536 228.307L660.272 224.753L659.516 219.701L656.767 215.395L636.536 228.307ZM637.4 234.074L661.301 231.901L661.238 231.208L661.135 230.52L637.4 234.074ZM637.927 239.876L614.026 242.049L614.524 247.523L617.354 252.235L637.927 239.876ZM641.028 245.037L664.141 238.572L663.269 235.454L661.601 232.678L641.028 245.037ZM642.589 250.618L619.476 257.083L619.504 257.181L619.532 257.279L642.589 250.618ZM644.206 256.214L668.003 259.328L668.653 254.363L667.263 249.552L644.206 256.214ZM643.425 262.18L619.628 259.066L619.477 260.22L619.438 261.383L643.425 262.18ZM643.232 267.99L619.245 267.193L619.042 273.325L621.806 278.803L643.232 267.99ZM646.014 273.503L670.012 273.137L669.928 267.618L667.441 262.69L646.014 273.503ZM646.103 279.297L669.374 285.166L670.148 282.096L670.1 278.932L646.103 279.297ZM644.633 285.123L621.362 279.255L620.195 283.882L620.887 288.604L644.633 285.123ZM645.473 290.853L621.727 294.334L621.822 294.98L621.951 295.619L645.473 290.853ZM646.645 296.635L668.54 306.464L671.698 299.428L670.167 291.869L646.645 296.635ZM644.102 302.3L622.207 292.471L618.114 301.587L621.701 310.913L644.102 302.3ZM646.376 308.213L667.735 319.157L672.626 309.611L668.777 299.599L646.376 308.213ZM643.543 313.742L622.183 302.798L620.481 306.12L619.868 309.803L643.543 313.742ZM642.602 319.397L618.927 315.458L617.984 321.128L619.711 326.61L642.602 319.397ZM644.527 325.508L667.671 331.863L669.544 325.042L667.418 318.295L644.527 325.508ZM642.987 331.118L664.328 342.097L665.47 339.879L666.13 337.473L642.987 331.118ZM640.25 336.438L618.909 325.459L617.762 327.688L617.1 330.106L640.25 336.438ZM638.735 341.978L615.585 335.646L615.281 336.76L615.084 337.898L638.735 341.978ZM637.755 347.66L614.104 343.58L613.866 344.959L613.79 346.356L637.755 347.66ZM637.433 353.581L660.085 361.511L661.212 358.291L661.397 354.884L637.433 353.581ZM635.519 359.047L653.822 374.571L656.701 371.177L658.171 366.977L635.519 359.047ZM631.542 363.736L613.239 348.212L609.72 352.36L608.334 357.619L631.542 363.736ZM630.073 369.31L606.865 363.193L606.52 364.502L606.324 365.842L630.073 369.31ZM629.21 375.216L646 392.365L651.788 386.699L652.958 378.684L629.21 375.216ZM624.807 379.526L608.017 362.377L601.804 368.459L600.929 377.11L624.807 379.526ZM624.186 385.657L644.506 398.428L647.498 393.668L648.064 388.074L624.186 385.657ZM621.108 390.556L640.966 404.033L641.203 403.684L641.428 403.327L621.108 390.556ZM617.854 395.35L634.181 412.94L636.181 411.084L637.713 408.827L617.854 395.35ZM613.471 399.418L597.144 381.828L591.449 387.113L589.933 394.734L613.471 399.418ZM612.263 405.488L630.739 420.807L634.616 416.13L635.802 410.172L612.263 405.488ZM608.564 409.949L626.189 426.24L626.627 425.765L627.039 425.268L608.564 409.949ZM604.615 414.222L622.078 430.686L622.159 430.6L622.239 430.513L604.615 414.222ZM600.656 418.421L616.415 436.523L617.307 435.746L618.119 434.884L600.656 418.421ZM596.304 422.21L580.546 404.108L575.439 408.554L573.408 415.014L596.304 422.21ZM594.401 428.265L609.045 447.279L615.031 442.669L617.297 435.461L594.401 428.265ZM589.731 431.861L575.087 412.846L574.735 413.117L574.394 413.401L589.731 431.861ZM585.312 435.533L569.974 417.073L567.829 418.856L566.149 421.083L585.312 435.533ZM581.791 440.201L598.676 457.257L599.909 456.037L600.954 454.651L581.791 440.201ZM577.649 444.302L592.666 463.023L593.643 462.239L594.533 461.358L577.649 444.302ZM573.093 447.957L587.652 467.036L587.883 466.86L588.11 466.678L573.093 447.957ZM568.534 451.435L575.421 474.426L579.614 473.17L583.093 470.515L568.534 451.435ZM562.686 453.187L555.799 430.196L551.479 431.49L547.923 434.264L562.686 453.187ZM558.119 456.75L570.848 477.096L571.902 476.437L572.881 475.673L558.119 456.75ZM553.227 459.811L540.497 439.465L539.227 440.259L538.066 441.206L553.227 459.811ZM548.775 463.438L555.768 486.397L560.28 485.022L563.936 482.043L548.775 463.438ZM543.141 465.154L536.147 442.196L530.309 443.974L526.029 448.326L543.141 465.154ZM538.881 469.486L543.742 492.988L550.881 491.512L555.992 486.314L538.881 469.486ZM533.016 470.699L528.154 447.197L523.255 448.21L519.168 451.097L533.016 470.699ZM528.313 474.021L535.522 496.913L539.098 495.786L542.16 493.623L528.313 474.021ZM522.801 475.757L528.913 498.966L529.465 498.82L530.01 498.648L522.801 475.757ZM517.149 477.245L511.037 454.036L504.969 455.634L500.459 459.999L517.149 477.245ZM512.614 481.634L517.806 505.066L524.429 503.598L529.304 498.88L512.614 481.634ZM507.025 482.872L507.906 506.856L510.087 506.776L512.217 506.304L507.025 482.872ZM501.067 483.091L500.186 459.107L492.65 459.384L486.627 463.921L501.067 483.091ZM496.153 486.793L504.226 509.395L507.671 508.164L510.593 505.963L496.153 486.793ZM490.592 488.779L491.495 512.762L495.187 512.623L498.665 511.381L490.592 488.779ZM484.779 488.998L483.876 465.015L481.757 465.095L479.684 465.545L484.779 488.998ZM479.218 490.206L474.124 466.753L471.615 467.298L469.279 468.361L479.218 490.206ZM473.846 492.65L478.482 516.199L481.233 515.657L483.786 514.495L473.846 492.65ZM468.099 493.782L467.893 517.781L470.337 517.802L472.735 517.33L468.099 493.782ZM462.164 493.731L462.371 469.732L461.134 469.721L459.902 469.838L462.164 493.731ZM456.545 494.263L454.284 470.369L451.679 470.616L449.189 471.418L456.545 494.263ZM451.028 496.039L454.924 519.721L456.686 519.431L458.385 518.884L451.028 496.039ZM445.306 496.981L441.411 473.299L441.294 473.318L441.178 473.338L445.306 496.981ZM439.506 497.993L440.938 521.951L442.295 521.87L443.634 521.636L439.506 497.993ZM433.694 498.341L428.088 521.677L431.561 522.511L435.127 522.298L433.694 498.341ZM427.948 496.961L433.554 473.624L427.761 472.233L421.99 473.712L427.948 496.961ZM422.313 498.404L422.455 522.404L425.409 522.386L428.27 521.653L422.313 498.404ZM416.528 498.439L416.385 474.439L414.599 474.45L412.835 474.724L416.528 498.439ZM410.685 499.349L406.268 522.939L410.312 523.696L414.378 523.063L410.685 499.349ZM404.745 498.237L409.161 474.646L406.966 474.235L404.733 474.237L404.745 498.237ZM398.86 498.24L398.848 474.24L397.335 474.24L395.834 474.431L398.86 498.24ZM393.056 498.977L387.993 522.437L392.008 523.304L396.083 522.786L393.056 498.977ZM387.492 497.776L381.296 520.963L381.859 521.113L382.429 521.236L387.492 497.776ZM381.741 496.239L387.938 473.053L387.645 472.975L387.35 472.904L381.741 496.239ZM376.149 494.895L381.758 471.56L375.834 470.136L369.948 471.71L376.149 494.895ZM370.147 496.5L364.313 519.78L370.343 521.292L376.349 519.685L370.147 496.5ZM364.407 495.061L356.253 517.634L357.395 518.046L358.572 518.341L364.407 495.061ZM358.956 493.092L350.077 515.39L350.437 515.533L350.802 515.665L358.956 493.092ZM353.618 490.967L362.497 468.67L360.733 467.967L358.88 467.551L353.618 490.967ZM347.902 489.682L333.336 508.756L337.512 511.946L342.64 513.098L347.902 489.682ZM343.191 486.085L357.758 467.011L351.177 461.985L342.897 462.086L343.191 486.085ZM336.85 486.162L325.837 507.486L331.157 510.234L337.145 510.161L336.85 486.162ZM331.678 483.491L316.091 501.741L318.2 503.542L320.664 504.814L331.678 483.491ZM327.213 479.678L342.799 461.427L339.299 458.438L334.942 456.956L327.213 479.678ZM321.557 477.754L301.446 490.851L305.973 497.803L313.828 500.475L321.557 477.754ZM318.176 472.563L338.288 459.465L334.984 454.392L329.669 451.493L318.176 472.563ZM313.064 469.774L294.874 485.431L297.73 488.748L301.572 490.844L313.064 469.774ZM309.293 465.393L327.483 449.736L325.648 447.605L323.37 445.955L309.293 465.393ZM304.627 462.014L287.287 478.607L288.79 480.177L290.55 481.453L304.627 462.014ZM300.664 457.872L318.004 441.28L317.144 440.381L316.195 439.575L300.664 457.872ZM296.236 454.114L273.883 462.852L276.088 468.492L280.704 472.41L296.236 454.114ZM294.053 448.531L316.406 439.792L313.739 432.97L307.717 428.8L294.053 448.531ZM289.037 445.057L266.398 453.025L268.98 460.361L275.373 464.788L289.037 445.057ZM287.073 439.476L309.711 431.508L308.025 426.717L304.543 423.02L287.073 439.476ZM283.006 435.158L262.693 447.94L263.936 449.915L265.536 451.614L283.006 435.158ZM279.894 430.214L256.088 433.259L256.76 438.513L259.581 442.996L279.894 430.214ZM279.128 424.228L302.934 421.182L302.208 415.503L298.995 410.763L279.128 424.228ZM275.805 419.324L251.838 418.07L251.417 426.118L255.938 432.789L275.805 419.324ZM276.128 413.147L300.096 414.401L300.311 410.294L299.146 406.349L276.128 413.147ZM274.514 407.679L251.197 413.364L251.333 413.924L251.496 414.476L274.514 407.679ZM273.161 402.131L296.478 396.446L295.93 394.198L294.962 392.096L273.161 402.131ZM270.69 396.763L246.708 397.689L246.892 402.461L248.889 406.798L270.69 396.763ZM270.467 390.977L294.449 390.051L294.394 388.635L294.173 387.235L270.467 390.977ZM269.568 385.287L293.275 381.545L293.174 380.907L293.04 380.277L269.568 385.287ZM268.352 379.591L244.42 377.792L244.162 381.23L244.881 384.601L268.352 379.591ZM268.788 373.791L292.721 375.59L292.981 372.124L292.248 368.728L268.788 373.791ZM267.538 368L244.033 363.151L243.01 368.112L244.079 373.063L267.538 368ZM268.725 362.246L246.584 352.986L245.689 355.126L245.22 357.397L268.725 362.246ZM271.052 356.683L293.193 365.943L295.253 361.018L295.031 355.686L271.052 356.683ZM270.81 350.881L247.551 344.964L246.685 348.369L246.831 351.879L270.81 350.881ZM272.23 345.301L295.489 351.218L295.931 349.48L296.11 347.696L272.23 345.301ZM272.805 339.57L296.685 341.965L296.83 340.517L296.8 339.062L272.805 339.57ZM272.679 333.614L249.16 328.833L248.628 331.451L248.684 334.122L272.679 333.614ZM273.837 327.917L251.759 318.505L250.803 320.747L250.318 323.136L273.837 327.917ZM276.125 322.55L254.272 312.627L254.157 312.881L254.047 313.139L276.125 322.55ZM278.523 317.268L258.493 304.048L257.452 305.624L256.671 307.344L278.523 317.268ZM281.763 312.359L301.794 325.58L302.576 324.395L303.212 323.126L281.763 312.359ZM284.333 307.239L305.782 318.006L305.973 317.627L306.15 317.242L284.333 307.239ZM286.715 302.045L308.531 312.047L309.641 309.627L310.193 307.022L286.715 302.045ZM287.951 296.212L266.356 285.741L265.08 288.373L264.473 291.235L287.951 296.212ZM290.479 291L270.66 277.464L269.659 278.93L268.884 280.528L290.479 291ZM293.743 286.22L313.562 299.755L314.411 298.513L315.097 297.175L293.743 286.22ZM296.406 281.029L279.616 263.88L276.831 266.607L275.052 270.074L296.406 281.029ZM300.597 276.926L317.387 294.075L317.603 293.864L317.814 293.647L300.597 276.926ZM304.628 272.776L321.845 289.497L324.689 286.568L326.405 282.863L304.628 272.776ZM307.153 267.324L293.171 247.818L288.034 251.501L285.376 257.237L307.153 267.324ZM311.949 263.887L298.326 244.128L298.146 244.253L297.967 244.38L311.949 263.887ZM316.751 260.576L330.375 280.335L331.325 279.679L332.208 278.936L316.751 260.576ZM321.125 256.893L336.582 275.253L337.496 274.484L338.329 273.628L321.125 256.893ZM325.14 252.766L313.09 232.01L310.237 233.667L307.937 236.031L325.14 252.766ZM330.128 249.87L342.179 270.625L343.467 269.877L344.654 268.975L330.128 249.87ZM334.675 246.413L320.441 227.09L320.294 227.198L320.149 227.308L334.675 246.413ZM339.312 242.997L353.546 262.321L354.71 261.463L355.763 260.472L339.312 242.997ZM343.623 238.939L335.273 216.438L330.713 218.13L327.171 221.464L343.623 238.939ZM349.097 236.907L342.423 213.854L341.575 214.099L340.746 214.407L349.097 236.907ZM354.661 235.296L361.334 258.35L362.92 257.891L364.427 257.219L354.661 235.296ZM359.912 232.957L351.708 210.403L350.916 210.691L350.146 211.034L359.912 232.957ZM365.32 230.99L373.525 253.544L374.509 253.186L375.459 252.743L365.32 230.99ZM370.592 228.533L367.857 204.689L363.986 205.133L360.454 206.779L370.592 228.533ZM376.423 227.864L379.158 251.707L381.897 251.393L384.493 250.466L376.423 227.864ZM381.869 225.919L384.051 202.018L378.782 201.537L373.799 203.317L381.869 225.919ZM387.802 226.461L385.62 250.361L391.765 250.922L397.418 248.45L387.802 226.461ZM393.342 224.038L393.999 200.047L388.639 199.9L383.726 202.048L393.342 224.038ZM399.134 224.196L398.477 248.187L399.379 248.212L400.281 248.169L399.134 224.196ZM404.988 223.916L412.115 200.998L408.071 199.741L403.841 199.944L404.988 223.916ZM410.778 225.716L403.652 248.634L407.729 249.902L411.992 249.686L410.778 225.716ZM416.525 225.425L417.739 249.395L417.797 249.392L417.855 249.388L416.525 225.425ZM422.406 225.099L431.795 203.012L426.654 200.826L421.075 201.136L422.406 225.099ZM427.858 227.416L418.468 249.503L422.463 251.202L426.8 251.393L427.858 227.416ZM433.771 227.677L449.963 209.962L443.532 204.084L434.828 203.7L433.771 227.677ZM438.379 231.889L422.187 249.604L429.138 255.957L438.553 255.889L438.379 231.889ZM444.679 231.844L457.675 211.667L451.66 207.793L444.505 207.844L444.679 231.844ZM449.597 235.011L436.601 255.188L437.496 255.765L438.439 256.26L449.597 235.011ZM454.753 237.719L468.421 217.992L467.213 217.154L465.911 216.471L454.753 237.719ZM459.55 241.043L480.786 229.861L478.049 224.662L473.219 221.316L459.55 241.043ZM462.445 246.541L441.209 257.723L443.469 262.014L447.217 265.092L462.445 246.541ZM466.865 250.17L485.78 235.398L484.146 233.305L482.093 231.62L466.865 250.17ZM470.376 254.666L451.461 269.438L453.3 271.793L455.66 273.625L470.376 254.666ZM475.099 258.332L496.898 248.291L494.446 242.968L489.816 239.374L475.099 258.332ZM477.538 263.627L500.624 257.066L500.115 255.276L499.337 253.586L477.538 263.627ZM479.135 269.244L456.049 275.805L457.181 279.787L459.581 283.16L479.135 269.244ZM482.534 274.019L503.555 262.439L502.888 261.229L502.087 260.103L482.534 274.019ZM485.385 279.195L509.147 282.566L510.272 274.633L506.406 267.615L485.385 279.195ZM484.512 285.349L460.75 281.979L460.078 286.717L461.275 291.35L484.512 285.349ZM485.94 290.878L462.703 296.879L462.992 298L463.388 299.088L485.94 290.878ZM487.986 296.498L511.366 301.916L512.974 294.979L510.538 288.288L487.986 296.498ZM486.646 302.281L463.265 296.863L463.074 297.689L462.941 298.525L486.646 302.281ZM485.75 307.935L509.233 312.89L509.359 312.293L509.454 311.691L485.75 307.935ZM484.577 313.493L461.094 308.538L460.278 312.405L460.745 316.33L484.577 313.493ZM485.309 319.645L504.102 334.573L510.323 326.74L509.141 316.808L485.309 319.645ZM481.517 324.419L462.724 309.491L460.611 312.152L459.319 315.295L481.517 324.419ZM479.346 329.699L498.538 344.111L500.379 341.659L501.544 338.824L479.346 329.699ZM475.909 334.277L456.718 319.865L456.605 320.015L456.495 320.166L475.909 334.277ZM472.58 338.856L490.989 354.255L491.513 353.628L491.994 352.967L472.58 338.856ZM468.955 343.19L450.547 327.791L448.988 329.654L447.834 331.792L468.955 343.19ZM466.09 348.5L479.493 368.409L484.401 365.104L487.211 359.898L466.09 348.5ZM461.257 351.753L470.91 373.727L472.877 372.862L474.66 371.662L461.257 351.753ZM455.902 354.106L446.249 332.133L443.326 333.417L440.841 335.42L455.902 354.106ZM451.351 357.773L461.63 379.461L464.199 378.244L466.412 376.459L451.351 357.773ZM446.151 360.238L454.38 382.783L455.425 382.402L456.43 381.926L446.151 360.238ZM440.715 362.222L443.415 386.07L446.257 385.748L448.943 384.767L440.715 362.222ZM434.86 362.885L432.159 339.038L428.512 339.451L425.154 340.935L434.86 362.885ZM429.565 365.226L437.849 387.752L438.569 387.487L439.271 387.176L429.565 365.226ZM424.008 367.27L416.723 390.138L424.566 392.636L432.292 389.795L424.008 367.27ZM417.961 365.344L425.246 342.476L420.622 341.003L415.788 341.442L417.961 365.344ZM412.307 365.858L414.288 389.776L414.384 389.768L414.481 389.759L412.307 365.858ZM406.545 366.335L404.564 342.417L397.098 343.035L391.309 347.791L406.545 366.335ZM390.341 348.586C380.1 357.001 378.619 372.125 387.033 382.366C395.448 392.607 410.571 394.088 420.813 385.674L405.577 367.13L390.341 348.586ZM74.1992 453.705L97.3572 460.006L97.3834 459.91L74.2255 453.608L51.0675 447.306L51.0413 447.403L74.1992 453.705ZM74.2255 453.608L96.9535 461.317L98.789 455.906L76.061 448.197L53.3329 440.487L51.4974 445.899L74.2255 453.608ZM76.061 448.197L99.4069 442.632L97.9763 436.63L74.6304 442.195L51.2844 447.76L52.715 453.762L76.061 448.197ZM74.6304 442.195L97.4036 449.77L99.237 444.258L76.4638 436.683L53.6906 429.108L51.8572 434.62L74.6304 442.195ZM76.4638 436.683L99.978 431.878L98.7416 425.828L75.2275 430.633L51.7134 435.437L52.9497 441.488L76.4638 436.683ZM75.2275 430.633L98.9456 434.3L99.8156 428.674L76.0974 425.007L52.3793 421.339L51.5094 426.965L75.2275 430.633ZM76.0974 425.007L98.9289 432.404L100.758 426.761L77.926 419.363L55.0946 411.965L53.266 417.609L76.0974 425.007ZM77.926 419.363L101.855 421.214L102.295 415.517L78.3668 413.666L54.4383 411.815L53.9976 417.512L77.926 419.363ZM78.3668 413.666L102.331 414.98L102.651 409.142L78.6869 407.828L54.7229 406.514L54.4028 412.352L78.3668 413.666ZM78.6869 407.828L101.861 414.069L103.365 408.487L80.1901 402.246L57.0157 396.005L55.5125 401.588L78.6869 407.828ZM80.1901 402.246L103.011 409.677L104.805 404.165L81.9846 396.735L59.1639 389.304L57.3694 394.815L80.1901 402.246ZM81.9846 396.735L105.794 399.753L106.528 393.962L82.7189 390.943L58.9095 387.925L58.1752 393.716L81.9846 396.735ZM82.7189 390.943L106.606 393.273L107.164 387.545L83.2775 385.216L59.3908 382.886L58.8322 388.614L82.7189 390.943ZM83.2775 385.216L105.041 395.333L107.543 389.952L85.7795 379.834L64.0163 369.716L61.5143 375.098L83.2775 385.216ZM85.7795 379.834L109.779 379.993L109.818 374.083L85.8186 373.924L61.8191 373.765L61.78 379.675L85.7795 379.834ZM85.8186 373.924L105.304 387.935L108.915 382.914L89.4291 368.903L69.9435 354.892L66.333 359.913L85.8186 373.924ZM89.4291 368.903L113.303 371.361L113.906 365.505L90.0322 363.046L66.1585 360.588L65.5553 366.444L89.4291 368.903ZM90.0322 363.046L113.956 364.954L114.418 359.16L90.4944 357.252L66.5703 355.344L66.1082 361.138L90.0322 363.046ZM90.4944 357.252L111.987 367.932L114.602 362.671L93.1088 351.991L71.6161 341.311L69.0016 346.572L90.4944 357.252ZM93.1088 351.991L114.416 363.035L117.128 357.805L95.8199 346.761L74.5123 335.716L71.8012 340.946L93.1088 351.991ZM95.8199 346.761L118.762 353.806L120.44 348.342L97.4978 341.297L74.5554 334.251L72.8774 339.715L95.8199 346.761ZM97.4978 341.297L121.398 343.479L121.936 337.591L98.0355 335.409L74.135 333.226L73.5973 339.114L97.4978 341.297ZM98.0355 335.409L120.955 342.529L122.667 337.018L99.7473 329.898L76.8277 322.778L75.1159 328.289L98.0355 335.409ZM99.7473 329.898L121.376 340.3L123.882 335.09L102.253 324.688L80.6239 314.287L78.1184 319.497L99.7473 329.898ZM102.253 324.688L125.904 328.766L126.901 322.986L103.25 318.908L79.5985 314.83L78.6019 320.61L102.253 324.688ZM103.25 318.908L126.718 323.929L127.936 318.237L104.468 313.216L80.9988 308.194L79.7808 313.886L103.25 318.908ZM104.468 313.216L121.896 329.715L126.186 325.184L108.758 308.684L91.329 292.184L87.0388 296.716L104.468 313.216ZM108.758 308.684L130.587 318.658L132.989 313.401L111.16 303.427L89.3309 293.452L86.9287 298.709L108.758 308.684ZM111.16 303.427L135.148 302.661L134.948 296.39L110.96 297.155L86.9721 297.92L87.1722 304.192L111.16 303.427ZM110.96 297.155L132.888 306.909L135.231 301.642L113.302 291.888L91.3739 282.135L89.0313 287.401L110.96 297.155ZM113.302 291.888L135.918 299.921L137.861 294.453L115.245 286.42L92.6288 278.388L90.6866 283.856L113.302 291.888ZM115.245 286.42L134.482 300.77L138.018 296.03L118.78 281.68L99.543 267.33L96.0073 272.07L115.245 286.42ZM118.78 281.68L141.854 288.283L143.455 282.69L120.381 276.087L97.3072 269.484L95.7066 275.077L118.78 281.68ZM120.381 276.087L139.959 289.969L143.357 285.176L123.78 271.294L104.202 257.412L100.803 262.205L120.381 276.087ZM123.78 271.294L146.75 278.249L148.438 272.673L125.468 265.718L102.497 258.764L100.809 264.339L123.78 271.294ZM125.468 265.718L144.625 280.175L148.153 275.499L128.996 261.043L109.838 246.587L106.31 251.262L125.468 265.718ZM128.996 261.043L151.766 268.628L153.61 263.09L130.84 255.506L108.07 247.921L106.226 253.459L128.996 261.043ZM130.84 255.506L152.026 266.783L154.734 261.695L133.548 250.418L112.362 239.142L109.655 244.229L130.84 255.506ZM133.548 250.418L153.188 264.213L156.518 259.472L136.878 245.677L117.239 231.883L113.909 236.624L133.548 250.418ZM136.878 245.677L158.878 255.269L161.194 249.957L139.194 240.365L117.194 230.773L114.878 236.086L136.878 245.677ZM139.194 240.365L161.261 249.801L163.545 244.461L141.478 235.025L119.411 225.589L117.127 230.929L139.194 240.365ZM141.478 235.025L161.117 248.82L164.44 244.089L144.801 230.294L125.162 216.499L121.839 221.23L141.478 235.025ZM144.801 230.294L160.567 248.389L165.123 244.42L149.356 226.325L133.589 208.23L129.034 212.2L144.801 230.294ZM149.356 226.325L172.54 232.53L174.098 226.711L150.914 220.506L127.73 214.3L126.172 220.12L149.356 226.325ZM150.914 220.506L168.49 236.848L172.468 232.57L154.891 216.227L137.315 199.885L133.337 204.163L150.914 220.506ZM154.891 216.227L177.341 224.714L179.433 219.18L156.983 210.693L134.534 202.207L132.442 207.741L154.891 216.227ZM156.983 210.693L177.535 223.088L180.525 218.131L159.973 205.737L139.421 193.342L136.431 198.299L156.983 210.693ZM159.973 205.737L178.86 220.545L182.423 216L163.536 201.192L144.649 186.384L141.086 190.929L159.973 205.737ZM163.536 201.192L178.777 219.731L183.372 215.954L168.13 197.415L152.889 178.876L148.294 182.653L163.536 201.192ZM168.13 197.415L190.883 205.05L192.82 199.28L170.067 191.644L147.314 184.009L145.377 189.78L168.13 197.415ZM170.067 191.644L186.217 209.397L190.544 205.461L174.394 187.708L158.244 169.955L153.916 173.892L170.067 191.644ZM174.394 187.708L193.343 202.437L196.882 197.884L177.933 183.155L158.984 168.426L155.445 172.979L174.394 187.708ZM177.933 183.155L198.048 196.246L201.223 191.368L181.107 178.277L160.992 165.186L157.818 170.064L177.933 183.155ZM181.107 178.277L197.454 195.85L201.701 191.899L185.355 174.326L169.008 156.754L164.761 160.705L181.107 178.277ZM185.355 174.326L201.426 192.151L205.73 188.27L189.659 170.445L173.588 152.621L169.283 156.502L185.355 174.326ZM189.659 170.445L205.282 188.664L209.683 184.89L194.059 166.672L178.436 148.453L174.036 152.227L189.659 170.445ZM194.059 166.672L213.103 181.278L216.62 176.693L197.576 162.087L178.532 147.481L175.015 152.066L194.059 166.672ZM197.576 162.087L217.761 175.07L220.948 170.115L200.763 157.132L180.578 144.149L177.391 149.103L197.576 162.087ZM200.763 157.132L216.694 175.082L221.022 171.24L205.091 153.291L189.16 135.341L184.831 139.182L200.763 157.132ZM205.091 153.291L219.713 172.322L224.306 168.793L209.684 149.761L195.062 130.73L190.469 134.259L205.091 153.291ZM209.684 149.761L228.372 164.82L232.034 160.275L213.346 145.217L194.659 130.158L190.996 134.703L209.684 149.761ZM213.346 145.217L220.975 167.972L226.893 165.988L219.264 143.233L211.635 120.477L205.718 122.461L213.346 145.217ZM219.264 143.233L240.073 155.19L243.125 149.879L222.316 137.922L201.506 125.965L198.455 131.276L219.264 143.233ZM222.316 137.922L234.826 158.403L239.783 155.375L227.272 134.894L214.762 114.413L209.805 117.441L222.316 137.922ZM227.272 134.894L245.811 150.136L249.572 145.561L231.034 130.319L212.495 115.077L208.734 119.652L227.272 134.894ZM231.034 130.319L239.262 152.864L244.923 150.798L236.695 128.253L228.466 105.708L222.806 107.774L231.034 130.319ZM236.695 128.253L251.222 147.357L255.792 143.882L241.264 124.778L226.737 105.674L222.167 109.149L236.695 128.253ZM241.264 124.778L259.2 140.725L263.152 136.281L245.216 120.333L227.28 104.386L223.329 108.831L241.264 124.778ZM245.216 120.333L251.146 143.589L257.068 142.079L251.138 118.824L245.208 95.5677L239.286 97.0776L245.216 120.333ZM251.138 118.824L265.552 138.013L270.145 134.563L255.731 115.373L241.317 96.1835L236.724 99.634L251.138 118.824ZM255.731 115.373L264.234 137.816L269.685 135.751L261.183 113.308L252.68 90.8644L247.229 92.9296L255.731 115.373ZM261.183 113.308L280.607 127.403L284.335 122.267L264.91 108.171L245.485 94.0759L241.758 99.2125L261.183 113.308ZM264.91 108.171L276.081 129.413L281.187 126.728L270.016 105.486L258.845 84.2443L253.739 86.9295L264.91 108.171ZM270.016 105.486L279.491 127.537L284.804 125.253L275.33 103.203L265.855 81.1522L260.541 83.4354L270.016 105.486ZM275.33 103.203L283.31 125.837L288.803 123.901L280.823 101.266L272.843 78.6317L267.35 80.5684L275.33 103.203ZM280.823 101.266L287.369 124.356L292.973 122.767L286.427 99.6773L279.881 76.5873L274.277 78.1761L280.823 101.266ZM286.427 99.6773L296.604 121.413L301.786 118.987L291.609 97.2511L281.433 75.5153L276.251 77.9415L286.427 99.6773ZM291.609 97.2511L303.466 118.118L308.517 115.248L296.661 94.3811L284.805 73.5141L279.753 76.384L291.609 97.2511ZM296.661 94.3811L303.88 117.269L309.418 115.523L302.198 92.6344L294.979 69.7461L289.441 71.4927L296.661 94.3811ZM302.198 92.6344L309.919 115.359L315.324 113.522L307.603 90.798L299.883 68.0737L294.478 69.9101L302.198 92.6344ZM307.603 90.798L318.229 112.318L323.434 109.748L312.808 88.2282L302.182 66.7085L296.978 69.2783L307.603 90.798ZM312.808 88.2282L320.163 111.073L325.687 109.295L318.332 86.4497L310.977 63.6046L305.453 65.383L312.808 88.2282ZM318.332 86.4497L328.513 108.183L333.796 105.708L323.615 83.975L313.433 62.2416L308.151 64.7163L318.332 86.4497ZM323.615 83.975L320.324 107.748L326.489 108.602L329.78 84.8285L333.071 61.0552L326.905 60.2017L323.615 83.975ZM329.78 84.8285L341.747 105.632L346.951 102.639L334.984 81.8352L323.017 61.0315L317.813 64.0247L329.78 84.8285ZM334.984 81.8352L340.246 105.251L345.929 103.974L340.667 80.5581L335.405 57.142L329.722 58.4192L334.984 81.8352ZM340.667 80.5581L345.123 104.141L350.73 103.081L346.274 79.4987L341.819 55.9159L336.211 56.9753L340.667 80.5581ZM346.274 79.4987L351.149 102.998L356.787 101.829L351.912 78.3291L347.037 54.8294L341.399 55.999L346.274 79.4987ZM351.912 78.3291L357.624 101.639L363.29 100.251L357.577 76.9408L351.865 53.6305L346.2 55.0187L351.912 78.3291ZM357.577 76.9408L354.43 100.734L360.378 101.52L363.526 77.7278L366.673 53.9351L360.725 53.1481L357.577 76.9408ZM363.526 77.7278L365.286 101.663L370.969 101.245L369.209 77.3098L367.448 53.3745L361.765 53.7924L363.526 77.7278ZM369.209 77.3098L378.9 99.2662L384.437 96.8222L374.746 74.8658L365.055 52.9094L359.518 55.3534L369.209 77.3098ZM374.746 74.8658L373.439 98.8302L379.317 99.1508L380.624 75.1865L381.931 51.2221L376.053 50.9014L374.746 74.8658ZM380.624 75.1865L381.369 99.1749L387.11 98.9967L386.365 75.0083L385.621 51.0198L379.88 51.198L380.624 75.1865ZM386.365 75.0083L382.446 98.6861L388.197 99.6381L392.117 75.9603L396.036 52.2825L390.284 51.3304L386.365 75.0083ZM392.117 75.9603L400.007 98.6262L405.709 96.6414L397.819 73.9754L389.928 51.3095L384.226 53.2944L392.117 75.9603ZM397.819 73.9754L396.205 97.9211L402.046 98.3148L403.66 74.3691L405.274 50.4235L399.432 50.0297L397.819 73.9754ZM403.66 74.3691L401.386 98.2611L407.274 98.8216L409.548 74.9296L411.822 51.0376L405.935 50.4771L403.66 74.3691ZM409.548 74.9296L412.261 98.7758L418.12 98.1091L415.407 74.263L412.694 50.4168L406.835 51.0835L409.548 74.9296ZM415.407 74.263L414.086 98.2266L419.861 98.5449L421.182 74.5812L422.502 50.6176L416.728 50.2993L415.407 74.263ZM421.182 74.5812L414.148 97.5273L419.763 99.2486L426.797 76.3025L433.831 53.3564L428.216 51.6352L421.182 74.5812ZM426.797 76.3025L427.971 100.274L433.64 99.9961L432.466 76.0248L431.292 52.0536L425.623 52.3312L426.797 76.3025ZM432.466 76.0248L426.429 99.253L432.125 100.734L438.163 77.5055L444.2 54.2773L438.504 52.7967L432.466 76.0248ZM438.163 77.5055L445.557 100.338L451.644 98.3669L444.25 75.5342L436.856 52.7016L430.769 54.6728L438.163 77.5055ZM444.25 75.5342L434.971 97.668L440.484 99.9792L449.763 77.8454L459.042 55.7116L453.529 53.4004L444.25 75.5342ZM449.763 77.8454L446.419 101.611L452.057 102.404L455.401 78.6386L458.744 54.8726L453.107 54.0795L449.763 77.8454ZM455.401 78.6386L447.138 101.171L452.542 103.153L460.805 80.6205L469.068 58.0878L463.664 56.1058L455.401 78.6386ZM460.805 80.6205L463.195 104.501L469.276 103.893L466.886 80.0118L464.496 56.1311L458.415 56.7398L460.805 80.6205ZM466.886 80.0118L463.043 103.702L468.785 104.634L472.628 80.9434L476.472 57.2532L470.73 56.3216L466.886 80.0118ZM472.628 80.9434L466.631 104.182L472.199 105.619L478.196 82.3801L484.193 59.1414L478.625 57.7047L472.628 80.9434ZM478.196 82.3801L474.779 106.136L480.456 106.952L483.872 83.1965L487.289 59.4409L481.612 58.6245L478.196 82.3801ZM483.872 83.1965L476.842 106.144L482.423 107.854L489.454 84.9064L496.484 61.9593L490.903 60.2493L483.872 83.1965ZM489.454 84.9064L482.214 107.788L487.782 109.55L495.022 86.6682L502.262 63.7863L496.694 62.0245L489.454 84.9064ZM495.022 86.6682L482.739 107.287L487.805 110.305L500.088 89.6862L512.371 69.0676L507.305 66.0496L495.022 86.6682ZM500.088 89.6862L488.87 110.903L493.946 113.587L505.163 92.3697L516.381 71.1525L511.305 68.469L500.088 89.6862ZM505.163 92.3697L498.381 115.391L503.92 117.023L510.702 94.0013L517.484 70.9796L511.945 69.3479L505.163 92.3697ZM510.702 94.0013L505.242 117.372L510.992 118.715L516.452 95.3448L521.912 71.9741L516.162 70.6307L510.702 94.0013ZM516.452 95.3448L501.855 114.395L506.553 117.995L521.15 98.9445L535.747 79.8938L531.049 76.2941L516.452 95.3448ZM521.15 98.9445L508.077 119.071L512.885 122.194L525.958 102.068L539.032 81.9413L534.224 78.8181L521.15 98.9445ZM525.958 102.068L524.277 126.009L530.517 126.447L532.199 102.506L533.88 78.565L527.64 78.1267L525.958 102.068ZM532.199 102.506L518.412 122.151L523.212 125.52L536.999 105.875L550.787 86.2305L545.986 82.8612L532.199 102.506ZM536.999 105.875L526.164 127.29L531.327 129.903L542.163 108.488L552.999 87.0732L547.835 84.4606L536.999 105.875ZM542.163 108.488L524.818 125.075L528.904 129.348L546.249 112.76L563.594 96.173L559.508 91.9004L542.163 108.488ZM546.249 112.76L536.888 134.86L542.276 137.142L551.637 115.043L560.997 92.9433L555.609 90.6611L546.249 112.76ZM551.637 115.043L533.463 130.718L537.368 135.245L555.541 119.57L573.715 103.894L569.81 99.3673L551.637 115.043ZM555.541 119.57L541.487 139.024L546.128 142.377L560.182 122.922L574.236 103.467L569.595 100.115L555.541 119.57ZM560.182 122.922L552.333 145.602L558.028 147.573L565.877 124.893L573.725 102.212L568.03 100.242L560.182 122.922ZM565.877 124.893L545.615 137.755L548.879 142.897L569.141 130.034L589.403 117.171L586.139 112.03L565.877 124.893ZM569.141 130.034L559.907 152.187L565.516 154.524L574.749 132.372L583.983 110.219L578.374 107.881L569.141 130.034ZM574.749 132.372L558.774 150.282L563.08 154.123L579.055 136.213L595.031 118.303L590.725 114.462L574.749 132.372ZM579.055 136.213L563.683 154.643L568.108 158.334L583.48 139.904L598.853 121.473L594.428 117.782L579.055 136.213ZM583.48 139.904L562.677 151.871L565.672 157.077L586.475 145.11L607.279 133.142L604.284 127.936L583.48 139.904ZM586.475 145.11L572.21 164.41L576.932 167.901L591.198 148.601L605.464 129.301L600.741 125.81L586.475 145.11ZM591.198 148.601L570.264 160.337L573.139 165.466L594.074 153.73L615.008 141.993L612.133 136.864L591.198 148.601ZM594.074 153.73L574.462 167.564L577.777 172.263L597.388 158.429L617 144.595L613.686 139.896L594.074 153.73ZM597.388 158.429L585.686 179.383L591.154 182.436L602.856 161.482L614.558 140.528L609.09 137.475L597.388 158.429ZM602.856 161.482L579.451 166.792L580.847 172.946L604.252 167.636L627.657 162.326L626.261 156.172L602.856 161.482ZM604.252 167.636L591.906 188.217L597.289 191.446L609.635 170.865L621.981 150.284L616.598 147.055L604.252 167.636ZM609.635 170.865L588.571 182.369L591.364 187.481L612.427 175.978L633.491 164.474L630.698 159.361L609.635 170.865ZM612.427 175.978L591.306 187.375L594.061 192.481L615.182 181.083L636.303 169.686L633.548 164.58L612.427 175.978ZM615.182 181.083L592.425 188.706L594.292 194.281L617.05 186.658L639.807 179.036L637.94 173.461L615.182 181.083ZM617.05 186.658L595.645 197.513L598.236 202.623L619.641 191.769L641.046 180.914L638.455 175.804L617.05 186.658ZM619.641 191.769L599.087 204.159L602.064 209.098L622.618 196.708L643.173 184.318L640.196 179.379L619.641 191.769ZM622.618 196.708L602.491 209.78L605.65 214.645L625.778 201.573L645.906 188.502L642.746 183.636L622.618 196.708ZM625.778 201.573L606.593 215.993L610.146 220.72L629.331 206.3L648.516 191.881L644.964 187.154L625.778 201.573ZM629.331 206.3L605.376 207.773L605.752 213.882L629.707 212.408L653.661 210.935L653.286 204.827L629.331 206.3ZM629.707 212.408L607.789 222.187L610.137 227.45L632.055 217.671L653.972 207.893L651.624 202.63L629.707 212.408ZM632.055 217.671L608.66 223.027L609.95 228.662L633.344 223.306L656.739 217.95L655.449 212.316L632.055 217.671ZM633.344 223.306L613.114 236.218L616.306 241.219L636.536 228.307L656.767 215.395L653.575 210.394L633.344 223.306ZM636.536 228.307L612.801 231.861L613.665 237.628L637.4 234.074L661.135 230.52L660.272 224.753L636.536 228.307ZM637.4 234.074L613.499 236.247L614.026 242.049L637.927 239.876L661.829 237.703L661.301 231.901L637.4 234.074ZM637.927 239.876L617.354 252.235L620.455 257.397L641.028 245.037L661.601 232.678L658.501 227.517L637.927 239.876ZM641.028 245.037L617.915 251.502L619.476 257.083L642.589 250.618L665.702 244.153L664.141 238.572L641.028 245.037ZM642.589 250.618L619.532 257.279L621.149 262.875L644.206 256.214L667.263 249.552L665.646 243.956L642.589 250.618ZM644.206 256.214L620.409 253.1L619.628 259.066L643.425 262.18L667.222 265.294L668.003 259.328L644.206 256.214ZM643.425 262.18L619.438 261.383L619.245 267.193L643.232 267.99L667.219 268.787L667.412 262.977L643.425 262.18ZM643.232 267.99L621.806 278.803L624.588 284.316L646.014 273.503L667.441 262.69L664.658 257.177L643.232 267.99ZM646.014 273.503L622.017 273.868L622.105 279.662L646.103 279.297L670.1 278.932L670.012 273.137L646.014 273.503ZM646.103 279.297L622.831 273.428L621.362 279.255L644.633 285.123L667.905 290.992L669.374 285.166L646.103 279.297ZM644.633 285.123L620.887 288.604L621.727 294.334L645.473 290.853L669.22 287.373L668.38 281.643L644.633 285.123ZM645.473 290.853L621.951 295.619L623.123 301.401L646.645 296.635L670.167 291.869L668.995 286.087L645.473 290.853ZM646.645 296.635L624.75 286.806L622.207 292.471L644.102 302.3L665.997 312.129L668.54 306.464L646.645 296.635ZM644.102 302.3L621.701 310.913L623.975 316.827L646.376 308.213L668.777 299.599L666.503 293.686L644.102 302.3ZM646.376 308.213L625.016 297.269L622.183 302.798L643.543 313.742L664.902 324.686L667.735 319.157L646.376 308.213ZM643.543 313.742L619.868 309.803L618.927 315.458L642.602 319.397L666.276 323.336L667.217 317.68L643.543 313.742ZM642.602 319.397L619.711 326.61L621.637 332.721L644.527 325.508L667.418 318.295L665.492 312.184L642.602 319.397ZM644.527 325.508L621.384 319.153L619.844 324.763L642.987 331.118L666.13 337.473L667.671 331.863L644.527 325.508ZM642.987 331.118L621.645 320.139L618.909 325.459L640.25 336.438L661.592 347.417L664.328 342.097L642.987 331.118ZM640.25 336.438L617.1 330.106L615.585 335.646L638.735 341.978L661.885 348.31L663.4 342.769L640.25 336.438ZM638.735 341.978L615.084 337.898L614.104 343.58L637.755 347.66L661.406 351.739L662.386 346.058L638.735 341.978ZM637.755 347.66L613.79 346.356L613.468 352.277L637.433 353.581L661.397 354.884L661.719 348.963L637.755 347.66ZM637.433 353.581L614.781 345.651L612.867 351.117L635.519 359.047L658.171 366.977L660.085 361.511L637.433 353.581ZM635.519 359.047L617.216 343.523L613.239 348.212L631.542 363.736L649.845 379.26L653.822 374.571L635.519 359.047ZM631.542 363.736L608.334 357.619L606.865 363.193L630.073 369.31L653.28 375.427L654.749 369.853L631.542 363.736ZM630.073 369.31L606.324 365.842L605.462 371.747L629.21 375.216L652.958 378.684L653.821 372.778L630.073 369.31ZM629.21 375.216L612.42 358.066L608.017 362.377L624.807 379.526L641.597 396.676L646 392.365L629.21 375.216ZM624.807 379.526L600.929 377.11L600.308 383.24L624.186 385.657L648.064 388.074L648.685 381.943L624.807 379.526ZM624.186 385.657L603.866 372.886L600.788 377.785L621.108 390.556L641.428 403.327L644.506 398.428L624.186 385.657ZM621.108 390.556L601.249 377.079L597.995 381.873L617.854 395.35L637.713 408.827L640.966 404.033L621.108 390.556ZM617.854 395.35L601.527 377.76L597.144 381.828L613.471 399.418L629.799 417.008L634.181 412.94L617.854 395.35ZM613.471 399.418L589.933 394.734L588.725 400.804L612.263 405.488L635.802 410.172L637.01 404.102L613.471 399.418ZM612.263 405.488L593.788 390.169L590.089 394.631L608.564 409.949L627.039 425.268L630.739 420.807L612.263 405.488ZM608.564 409.949L590.94 393.659L586.99 397.932L604.615 414.222L622.239 430.513L626.189 426.24L608.564 409.949ZM604.615 414.222L587.152 397.759L583.193 401.958L600.656 418.421L618.119 434.884L622.078 430.686L604.615 414.222ZM600.656 418.421L584.898 400.319L580.546 404.108L596.304 422.21L612.062 440.312L616.415 436.523L600.656 418.421ZM596.304 422.21L573.408 415.014L571.505 421.068L594.401 428.265L617.297 435.461L619.2 429.406L596.304 422.21ZM594.401 428.265L579.757 409.25L575.087 412.846L589.731 431.861L604.375 450.876L609.045 447.279L594.401 428.265ZM589.731 431.861L574.394 413.401L569.974 417.073L585.312 435.533L600.649 453.993L605.068 450.321L589.731 431.861ZM585.312 435.533L566.149 421.083L562.629 425.751L581.791 440.201L600.954 454.651L604.474 449.983L585.312 435.533ZM581.791 440.201L564.907 423.145L560.764 427.245L577.649 444.302L594.533 461.358L598.676 457.257L581.791 440.201ZM577.649 444.302L562.632 425.581L558.075 429.235L573.093 447.957L588.11 466.678L592.666 463.023L577.649 444.302ZM573.093 447.957L558.533 428.877L553.975 432.356L568.534 451.435L583.093 470.515L587.652 467.036L573.093 447.957ZM568.534 451.435L561.647 428.445L555.799 430.196L562.686 453.187L569.573 476.178L575.421 474.426L568.534 451.435ZM562.686 453.187L547.923 434.264L543.356 437.828L558.119 456.75L572.881 475.673L577.448 472.11L562.686 453.187ZM558.119 456.75L545.389 436.404L540.497 439.465L553.227 459.811L565.957 480.157L570.848 477.096L558.119 456.75ZM553.227 459.811L538.066 441.206L533.615 444.833L548.775 463.438L563.936 482.043L568.388 478.416L553.227 459.811ZM548.775 463.438L541.782 440.48L536.147 442.196L543.141 465.154L550.134 488.113L555.768 486.397L548.775 463.438ZM543.141 465.154L526.029 448.326L521.769 452.657L538.881 469.486L555.992 486.314L560.252 481.983L543.141 465.154ZM538.881 469.486L534.019 445.983L528.154 447.197L533.016 470.699L537.877 494.201L543.742 492.988L538.881 469.486ZM533.016 470.699L519.168 451.097L514.466 454.419L528.313 474.021L542.16 493.623L546.863 490.301L533.016 470.699ZM528.313 474.021L521.104 451.129L515.592 452.865L522.801 475.757L530.01 498.648L535.522 496.913L528.313 474.021ZM522.801 475.757L516.69 452.548L511.037 454.036L517.149 477.245L523.261 500.454L528.913 498.966L522.801 475.757ZM517.149 477.245L500.459 459.999L495.924 464.387L512.614 481.634L529.304 498.88L533.839 494.492L517.149 477.245ZM512.614 481.634L507.422 458.202L501.833 459.441L507.025 482.872L512.217 506.304L517.806 505.066L512.614 481.634ZM507.025 482.872L506.144 458.888L500.186 459.107L501.067 483.091L501.949 507.075L507.906 506.856L507.025 482.872ZM501.067 483.091L486.627 463.921L481.712 467.624L496.153 486.793L510.593 505.963L515.508 502.261L501.067 483.091ZM496.153 486.793L488.08 464.192L482.519 466.178L490.592 488.779L498.665 511.381L504.226 509.395L496.153 486.793ZM490.592 488.779L489.689 464.796L483.876 465.015L484.779 488.998L485.682 512.981L491.495 512.762L490.592 488.779ZM484.779 488.998L479.684 465.545L474.124 466.753L479.218 490.206L484.313 513.659L489.873 512.451L484.779 488.998ZM479.218 490.206L469.279 468.361L463.907 470.805L473.846 492.65L483.786 514.495L489.158 512.051L479.218 490.206ZM473.846 492.65L469.211 469.102L463.464 470.234L468.099 493.782L472.735 517.33L478.482 516.199L473.846 492.65ZM468.099 493.782L468.306 469.783L462.371 469.732L462.164 493.731L461.958 517.73L467.893 517.781L468.099 493.782ZM462.164 493.731L459.902 469.838L454.284 470.369L456.545 494.263L458.807 518.156L464.426 517.624L462.164 493.731ZM456.545 494.263L449.189 471.418L443.672 473.195L451.028 496.039L458.385 518.884L463.902 517.107L456.545 494.263ZM451.028 496.039L447.133 472.358L441.411 473.299L445.306 496.981L449.202 520.662L454.924 519.721L451.028 496.039ZM445.306 496.981L441.178 473.338L435.377 474.351L439.506 497.993L443.634 521.636L449.435 520.623L445.306 496.981ZM439.506 497.993L438.073 474.036L432.261 474.384L433.694 498.341L435.127 522.298L440.938 521.951L439.506 497.993ZM433.694 498.341L439.3 475.005L433.554 473.624L427.948 496.961L422.342 520.297L428.088 521.677L433.694 498.341ZM427.948 496.961L421.99 473.712L416.356 475.155L422.313 498.404L428.27 521.653L433.905 520.209L427.948 496.961ZM422.313 498.404L422.171 474.405L416.385 474.439L416.528 498.439L416.67 522.438L422.455 522.404L422.313 498.404ZM416.528 498.439L412.835 474.724L406.992 475.634L410.685 499.349L414.378 523.063L420.22 522.153L416.528 498.439ZM410.685 499.349L415.101 475.758L409.161 474.646L404.745 498.237L400.329 521.827L406.268 522.939L410.685 499.349ZM404.745 498.237L404.733 474.237L398.848 474.24L398.86 498.24L398.872 522.24L404.757 522.237L404.745 498.237ZM398.86 498.24L395.834 474.431L390.03 475.169L393.056 498.977L396.083 522.786L401.886 522.048L398.86 498.24ZM393.056 498.977L398.12 475.517L392.556 474.317L387.492 497.776L382.429 521.236L387.993 522.437L393.056 498.977ZM387.492 497.776L393.689 474.59L387.938 473.053L381.741 496.239L375.544 519.425L381.296 520.963L387.492 497.776ZM381.741 496.239L387.35 472.904L381.758 471.56L376.149 494.895L370.54 518.23L376.132 519.575L381.741 496.239ZM376.149 494.895L369.948 471.71L363.946 473.315L370.147 496.5L376.349 519.685L382.35 518.08L376.149 494.895ZM370.147 496.5L375.982 473.22L370.241 471.781L364.407 495.061L358.572 518.341L364.313 519.78L370.147 496.5ZM364.407 495.061L372.56 472.489L367.109 470.52L358.956 493.092L350.802 515.665L356.253 517.634L364.407 495.061ZM358.956 493.092L367.835 470.795L362.497 468.67L353.618 490.967L344.739 513.264L350.077 515.39L358.956 493.092ZM353.618 490.967L358.88 467.551L353.165 466.266L347.902 489.682L342.64 513.098L348.355 514.383L353.618 490.967ZM347.902 489.682L362.469 470.608L357.758 467.011L343.191 486.085L328.625 505.159L333.336 508.756L347.902 489.682ZM343.191 486.085L342.897 462.086L336.556 462.164L336.85 486.162L337.145 510.161L343.486 510.083L343.191 486.085ZM336.85 486.162L347.864 464.839L342.691 462.167L331.678 483.491L320.664 504.814L325.837 507.486L336.85 486.162ZM331.678 483.491L347.264 465.241L342.799 461.427L327.213 479.678L311.627 497.928L316.091 501.741L331.678 483.491ZM327.213 479.678L334.942 456.956L329.286 455.032L321.557 477.754L313.828 500.475L319.484 502.399L327.213 479.678ZM321.557 477.754L341.668 464.656L338.288 459.465L318.176 472.563L298.065 485.66L301.446 490.851L321.557 477.754ZM318.176 472.563L329.669 451.493L324.556 448.704L313.064 469.774L301.572 490.844L306.684 493.632L318.176 472.563ZM313.064 469.774L331.253 454.117L327.483 449.736L309.293 465.393L291.104 481.05L294.874 485.431L313.064 469.774ZM309.293 465.393L323.37 445.955L318.704 442.576L304.627 462.014L290.55 481.453L295.216 484.832L309.293 465.393ZM304.627 462.014L321.968 445.422L318.004 441.28L300.664 457.872L283.323 474.464L287.287 478.607L304.627 462.014ZM300.664 457.872L316.195 439.575L311.768 435.817L296.236 454.114L280.704 472.41L285.132 476.169L300.664 457.872ZM296.236 454.114L318.588 445.375L316.406 439.792L294.053 448.531L271.701 457.27L273.883 462.852L296.236 454.114ZM294.053 448.531L307.717 428.8L302.7 425.326L289.037 445.057L275.373 464.788L280.39 468.262L294.053 448.531ZM289.037 445.057L311.676 437.089L309.711 431.508L287.073 439.476L264.434 447.444L266.398 453.025L289.037 445.057ZM287.073 439.476L304.543 423.02L300.476 418.702L283.006 435.158L265.536 451.614L269.603 455.932L287.073 439.476ZM283.006 435.158L303.319 422.376L300.207 417.431L279.894 430.214L259.581 442.996L262.693 447.94L283.006 435.158ZM279.894 430.214L303.7 427.168L302.934 421.182L279.128 424.228L255.322 427.274L256.088 433.259L279.894 430.214ZM279.128 424.228L298.995 410.763L295.672 405.86L275.805 419.324L255.938 432.789L259.261 437.692L279.128 424.228ZM275.805 419.324L299.772 420.579L300.096 414.401L276.128 413.147L252.161 411.892L251.838 418.07L275.805 419.324ZM276.128 413.147L299.146 406.349L297.531 400.881L274.514 407.679L251.496 414.476L253.111 419.944L276.128 413.147ZM274.514 407.679L297.831 401.994L296.478 396.446L273.161 402.131L249.844 407.816L251.197 413.364L274.514 407.679ZM273.161 402.131L294.962 392.096L292.491 386.728L270.69 396.763L248.889 406.798L251.36 412.166L273.161 402.131ZM270.69 396.763L294.672 395.837L294.449 390.051L270.467 390.977L246.485 391.903L246.708 397.689L270.69 396.763ZM270.467 390.977L294.173 387.235L293.275 381.545L269.568 385.287L245.862 389.03L246.76 394.719L270.467 390.977ZM269.568 385.287L293.04 380.277L291.824 374.58L268.352 379.591L244.881 384.601L246.097 390.298L269.568 385.287ZM268.352 379.591L292.285 381.389L292.721 375.59L268.788 373.791L244.856 371.992L244.42 377.792L268.352 379.591ZM268.788 373.791L292.248 368.728L290.998 362.936L267.538 368L244.079 373.063L245.329 378.855L268.788 373.791ZM267.538 368L291.043 372.849L292.23 367.094L268.725 362.246L245.22 357.397L244.033 363.151L267.538 368ZM268.725 362.246L290.867 371.505L293.193 365.943L271.052 356.683L248.91 347.423L246.584 352.986L268.725 362.246ZM271.052 356.683L295.031 355.686L294.79 349.884L270.81 350.881L246.831 351.879L247.072 357.68L271.052 356.683ZM270.81 350.881L294.07 356.799L295.489 351.218L272.23 345.301L248.971 339.384L247.551 344.964L270.81 350.881ZM272.23 345.301L296.11 347.696L296.685 341.965L272.805 339.57L248.925 337.175L248.35 342.906L272.23 345.301ZM272.805 339.57L296.8 339.062L296.673 333.106L272.679 333.614L248.684 334.122L248.81 340.078L272.805 339.57ZM272.679 333.614L296.198 338.395L297.356 332.697L273.837 327.917L250.318 323.136L249.16 328.833L272.679 333.614ZM273.837 327.917L295.915 337.328L298.202 331.962L276.125 322.55L254.047 313.139L251.759 318.505L273.837 327.917ZM276.125 322.55L297.977 332.474L300.376 327.192L278.523 317.268L256.671 307.344L254.272 312.627L276.125 322.55ZM278.523 317.268L298.554 330.488L301.794 325.58L281.763 312.359L261.732 299.139L258.493 304.048L278.523 317.268ZM281.763 312.359L303.212 323.126L305.782 318.006L284.333 307.239L262.884 296.472L260.314 301.592L281.763 312.359ZM284.333 307.239L306.15 317.242L308.531 312.047L286.715 302.045L264.898 292.043L262.517 297.237L284.333 307.239ZM286.715 302.045L310.193 307.022L311.429 301.19L287.951 296.212L264.473 291.235L263.236 297.068L286.715 302.045ZM287.951 296.212L309.546 306.684L312.074 301.472L290.479 291L268.884 280.528L266.356 285.741L287.951 296.212ZM290.479 291L310.298 304.535L313.562 299.755L293.743 286.22L273.925 272.684L270.66 277.464L290.479 291ZM293.743 286.22L315.097 297.175L317.76 291.985L296.406 281.029L275.052 270.074L272.39 275.264L293.743 286.22ZM296.406 281.029L313.196 298.179L317.387 294.075L300.597 276.926L283.807 259.777L279.616 263.88L296.406 281.029ZM300.597 276.926L317.814 293.647L321.845 289.497L304.628 272.776L287.412 256.055L283.381 260.205L300.597 276.926ZM304.628 272.776L326.405 282.863L328.93 277.412L307.153 267.324L285.376 257.237L282.851 262.688L304.628 272.776ZM307.153 267.324L321.135 286.831L325.931 283.393L311.949 263.887L297.967 244.38L293.171 247.818L307.153 267.324ZM311.949 263.887L325.573 283.645L330.375 280.335L316.751 260.576L303.128 240.817L298.326 244.128L311.949 263.887ZM316.751 260.576L332.208 278.936L336.582 275.253L321.125 256.893L305.669 238.533L301.294 242.216L316.751 260.576ZM321.125 256.893L338.329 273.628L342.344 269.5L325.14 252.766L307.937 236.031L303.922 240.159L321.125 256.893ZM325.14 252.766L337.191 273.521L342.179 270.625L330.128 249.87L318.077 229.115L313.09 232.01L325.14 252.766ZM330.128 249.87L344.654 268.975L349.201 265.518L334.675 246.413L320.149 227.308L315.602 230.765L330.128 249.87ZM334.675 246.413L348.909 265.736L353.546 262.321L339.312 242.997L325.077 223.674L320.441 227.09L334.675 246.413ZM339.312 242.997L355.763 260.472L360.074 256.413L343.623 238.939L327.171 221.464L322.86 225.523L339.312 242.997ZM343.623 238.939L351.973 261.439L357.447 259.408L349.097 236.907L340.746 214.407L335.273 216.438L343.623 238.939ZM349.097 236.907L355.77 259.961L361.334 258.35L354.661 235.296L347.988 212.243L342.423 213.854L349.097 236.907ZM354.661 235.296L364.427 257.219L369.679 254.88L359.912 232.957L350.146 211.034L344.895 213.373L354.661 235.296ZM359.912 232.957L368.117 255.511L373.525 253.544L365.32 230.99L357.116 208.436L351.708 210.403L359.912 232.957ZM365.32 230.99L375.459 252.743L380.731 250.286L370.592 228.533L360.454 206.779L355.182 209.236L365.32 230.99ZM370.592 228.533L373.328 252.376L379.158 251.707L376.423 227.864L373.687 204.02L367.857 204.689L370.592 228.533ZM376.423 227.864L384.493 250.466L389.94 248.521L381.869 225.919L373.799 203.317L368.352 205.261L376.423 227.864ZM381.869 225.919L379.687 249.82L385.62 250.361L387.802 226.461L389.983 202.56L384.051 202.018L381.869 225.919ZM387.802 226.461L397.418 248.45L402.958 246.027L393.342 224.038L383.726 202.048L378.185 204.471L387.802 226.461ZM393.342 224.038L392.685 248.029L398.477 248.187L399.134 224.196L399.791 200.205L393.999 200.047L393.342 224.038ZM399.134 224.196L400.281 248.169L406.136 247.889L404.988 223.916L403.841 199.944L397.987 200.224L399.134 224.196ZM404.988 223.916L397.862 246.834L403.652 248.634L410.778 225.716L417.904 202.799L412.115 200.998L404.988 223.916ZM410.778 225.716L411.992 249.686L417.739 249.395L416.525 225.425L415.31 201.456L409.564 201.747L410.778 225.716ZM416.525 225.425L417.855 249.388L423.737 249.062L422.406 225.099L421.075 201.136L415.194 201.462L416.525 225.425ZM422.406 225.099L413.017 247.186L418.468 249.503L427.858 227.416L437.247 205.329L431.795 203.012L422.406 225.099ZM427.858 227.416L426.8 251.393L432.713 251.654L433.771 227.677L434.828 203.7L428.915 203.44L427.858 227.416ZM433.771 227.677L417.579 245.392L422.187 249.604L438.379 231.889L454.572 214.175L449.963 209.962L433.771 227.677ZM438.379 231.889L438.553 255.889L444.853 255.843L444.679 231.844L444.505 207.844L438.205 207.89L438.379 231.889ZM444.679 231.844L431.683 252.02L436.601 255.188L449.597 235.011L462.593 214.835L457.675 211.667L444.679 231.844ZM449.597 235.011L438.439 256.26L443.594 258.967L454.753 237.719L465.911 216.471L460.755 213.763L449.597 235.011ZM454.753 237.719L441.084 257.446L445.881 260.77L459.55 241.043L473.219 221.316L468.421 217.992L454.753 237.719ZM459.55 241.043L438.314 252.224L441.209 257.723L462.445 246.541L483.681 235.36L480.786 229.861L459.55 241.043ZM462.445 246.541L447.217 265.092L451.637 268.72L466.865 250.17L482.093 231.62L477.673 227.991L462.445 246.541ZM466.865 250.17L447.949 264.941L451.461 269.438L470.376 254.666L489.292 239.894L485.78 235.398L466.865 250.17ZM470.376 254.666L455.66 273.625L460.383 277.291L475.099 258.332L489.816 239.374L485.093 235.708L470.376 254.666ZM475.099 258.332L453.301 268.373L455.74 273.668L477.538 263.627L499.337 253.586L496.898 248.291L475.099 258.332ZM477.538 263.627L454.453 270.189L456.049 275.805L479.135 269.244L502.22 262.682L500.624 257.066L477.538 263.627ZM479.135 269.244L459.581 283.16L462.98 287.936L482.534 274.019L502.087 260.103L498.688 255.327L479.135 269.244ZM482.534 274.019L461.513 285.6L464.364 290.776L485.385 279.195L506.406 267.615L503.555 262.439L482.534 274.019ZM485.385 279.195L461.623 275.825L460.75 281.979L484.512 285.349L508.274 288.72L509.147 282.566L485.385 279.195ZM484.512 285.349L461.275 291.35L462.703 296.879L485.94 290.878L509.178 284.877L507.75 279.348L484.512 285.349ZM485.94 290.878L463.388 299.088L465.434 304.708L487.986 296.498L510.538 288.288L508.492 282.668L485.94 290.878ZM487.986 296.498L464.605 291.08L463.265 296.863L486.646 302.281L510.026 307.699L511.366 301.916L487.986 296.498ZM486.646 302.281L462.941 298.525L462.046 304.179L485.75 307.935L509.454 311.691L510.35 306.037L486.646 302.281ZM485.75 307.935L462.267 302.979L461.094 308.538L484.577 313.493L508.06 318.449L509.233 312.89L485.75 307.935ZM484.577 313.493L460.745 316.33L461.477 322.482L485.309 319.645L509.141 316.808L508.409 310.657L484.577 313.493ZM485.309 319.645L466.516 304.717L462.724 309.491L481.517 324.419L500.309 339.347L504.102 334.573L485.309 319.645ZM481.517 324.419L459.319 315.295L457.148 320.575L479.346 329.699L501.544 338.824L503.715 333.543L481.517 324.419ZM479.346 329.699L460.155 315.288L456.718 319.865L475.909 334.277L495.1 348.688L498.538 344.111L479.346 329.699ZM475.909 334.277L456.495 320.166L453.167 324.746L472.58 338.856L491.994 352.967L495.323 348.387L475.909 334.277ZM472.58 338.856L454.172 323.457L450.547 327.791L468.955 343.19L487.364 358.589L490.989 354.255L472.58 338.856ZM468.955 343.19L447.834 331.792L444.969 337.102L466.09 348.5L487.211 359.898L490.076 354.588L468.955 343.19ZM466.09 348.5L452.687 328.591L447.854 331.844L461.257 351.753L474.66 371.662L479.493 368.409L466.09 348.5ZM461.257 351.753L451.604 329.78L446.249 332.133L455.902 354.106L465.554 376.079L470.91 373.727L461.257 351.753ZM455.902 354.106L440.841 335.42L436.29 339.087L451.351 357.773L466.412 376.459L470.963 372.792L455.902 354.106ZM451.351 357.773L441.073 336.086L435.873 338.55L446.151 360.238L456.43 381.926L461.63 379.461L451.351 357.773ZM446.151 360.238L437.922 337.693L432.486 339.677L440.715 362.222L448.943 384.767L454.38 382.783L446.151 360.238ZM440.715 362.222L438.014 338.375L432.159 339.038L434.86 362.885L437.561 386.733L443.415 386.07L440.715 362.222ZM434.86 362.885L425.154 340.935L419.86 343.276L429.565 365.226L439.271 387.176L444.565 384.835L434.86 362.885ZM429.565 365.226L421.282 342.701L415.725 344.745L424.008 367.27L432.292 389.795L437.849 387.752L429.565 365.226ZM424.008 367.27L431.293 344.402L425.246 342.476L417.961 365.344L410.677 388.211L416.723 390.138L424.008 367.27ZM417.961 365.344L415.788 341.442L410.133 341.956L412.307 365.858L414.481 389.759L420.135 389.245L417.961 365.344ZM412.307 365.858L410.326 341.94L404.564 342.417L406.545 366.335L408.526 390.253L414.288 389.776L412.307 365.858ZM406.545 366.335L391.309 347.791L390.341 348.586L405.577 367.13L420.813 385.674L421.78 384.879L406.545 366.335Z" fill="#FEFFF5"/>
</g>
<defs>
<filter id="filter0_g_1973_1963" x="-0.000782013" y="0.00019455" width="722.327" height="573.395" filterUnits="userSpaceOnUse" color-interpolation-filters="sRGB">
<feFlood flood-opacity="0" result="BackgroundImageFix"/>
<feBlend mode="normal" in="SourceGraphic" in2="BackgroundImageFix" result="shape"/>
<feTurbulence type="fractalNoise" baseFrequency="0.99900001287460327 0.99900001287460327" numOctaves="3" seed="62" />
<feDisplacementMap in="shape" scale="99.400001525878906" xChannelSelector="R" yChannelSelector="G" result="displacedImage" width="100%" height="100%" />
<feMerge result="effect1_texture_1973_1963">
<feMergeNode in="displacedImage"/>
</feMerge>
</filter>
</defs>
</svg>
